# xmcd CD database file
#
# Track frame offsets:
#	150
#	23214
#	47532
#	74039
#	103478
#	130072
#	150899
#	174963
#	199653
#	222977
#
# Disc length: 3246 seconds
#
# Revision: 0
# Processed by: cddbd v1.5.2PL0 Copyright (c) Steve Scherf et al.
# Submitted via: CDex 1.70beta2
#
DISCID=880cac0a
DTITLE=妹尾美里 - Rosebud
DYEAR=2008
DGENRE=Jazz
TTITLE0=Butterfly
TTITLE1=You are Always In My Heart
TTITLE2=Rosebud
TTITLE3=Flora
TTITLE4=Inspire
TTITLE5=Luna
TTITLE6=Camellia
TTITLE7=Fantasy In Sakura
TTITLE8=Mu
TTITLE9=Marron Glace
EXTD=YEAR: 2008
EXTT0=
EXTT1=
EXTT2=
EXTT3=
EXTT4=
EXTT5=
EXTT6=
EXTT7=
EXTT8=
EXTT9=
PLAYORDER=
